HIERARCHY
ROOT Hips
{
 OFFSET 0.000000 0.000000 0.000000
 CHANNELS 6 Xposition Yposition Zposition Yrotation Xrotation Zrotation
 JOINT Chest
 {
  OFFSET 0.000000 9.588913 -0.003946
  CHANNELS 3 Yrotation Xrotation Zrotation
  JOINT Chest2
  {
   OFFSET 0.000000 9.541882 0.008053
   CHANNELS 3 Yrotation Xrotation Zrotation
   JOINT Chest3
   {
    OFFSET 0.000000 9.501360 0.000000
    CHANNELS 3 Yrotation Xrotation Zrotation
    JOINT Chest4
    {
     OFFSET 0.000000 9.491660 0.000000
     CHANNELS 3 Yrotation Xrotation Zrotation
     JOINT Neck
     {
      OFFSET 0.000000 14.331917 0.000000
      CHANNELS 3 Yrotation Xrotation Zrotation
      JOINT Head
      {
       OFFSET 0.000000 8.884799 0.017034
       CHANNELS 3 Yrotation Xrotation Zrotation
       End Site
       {
        OFFSET 0.000000 16.896195 0.008993
       }
      }
     }
     JOINT RightCollar
     {
      OFFSET -2.923010 9.499495 0.000000
      CHANNELS 3 Yrotation Xrotation Zrotation
      JOINT RightShoulder
      {
       OFFSET -13.795216 0.000000 0.000000
       CHANNELS 3 Yrotation Xrotation Zrotation
       JOINT RightElbow
       {
        OFFSET -30.272209 0.000000 0.000000
        CHANNELS 3 Yrotation Xrotation Zrotation
        JOINT RightWrist
        {
         OFFSET -24.478199 0.000000 0.000000
         CHANNELS 3 Yrotation Xrotation Zrotation
         End Site
         {
          OFFSET -18.090752 0.000000 0.000000
         }
        }
       }
      }
     }
     JOINT LeftCollar
     {
      OFFSET 2.923010 9.499495 0.000000
      CHANNELS 3 Yrotation Xrotation Zrotation
      JOINT LeftShoulder
      {
       OFFSET 13.795216 0.000000 0.000000
       CHANNELS 3 Yrotation Xrotation Zrotation
       JOINT LeftElbow
       {
        OFFSET 30.272209 0.000000 0.000000
        CHANNELS 3 Yrotation Xrotation Zrotation
        JOINT LeftWrist
        {
         OFFSET 24.478199 0.000000 0.000000
         CHANNELS 3 Yrotation Xrotation Zrotation
         End Site
         {
          OFFSET 18.090752 0.000000 0.000000
         }
        }
       }
      }
     }
    }
   }
  }
 }
 JOINT RightHip
 {
  OFFSET -7.826875 0.019532 0.001973
  CHANNELS 3 Yrotation Xrotation Zrotation
  JOINT RightKnee
  {
   OFFSET 0.000000 -40.546152 -0.001885
   CHANNELS 3 Yrotation Xrotation Zrotation
   JOINT RightAnkle
   {
    OFFSET 0.000000 -39.417092 -0.003189
    CHANNELS 3 Yrotation Xrotation Zrotation
    JOINT RightToe
    {
     OFFSET 0.000000 -7.579396 17.243563
     CHANNELS 3 Yrotation Xrotation Zrotation
     End Site
     {
      OFFSET 0.000000 -1.500329 6.694466
     }
    }
   }
  }
 }
 JOINT LeftHip
 {
  OFFSET 7.826875 0.019532 0.001973
  CHANNELS 3 Yrotation Xrotation Zrotation
  JOINT LeftKnee
  {
   OFFSET 0.000000 -40.546152 -0.001885
   CHANNELS 3 Yrotation Xrotation Zrotation
   JOINT LeftAnkle
   {
    OFFSET 0.000000 -39.417092 -0.003189
    CHANNELS 3 Yrotation Xrotation Zrotation
    JOINT LeftToe
    {
     OFFSET 0.000000 -7.579396 17.243563
     CHANNELS 3 Yrotation Xrotation Zrotation
     End Site
     {
      OFFSET 0.000000 -1.500329 6.694466
     }
    }
   }
  }
 }
}
MOTION
Frames: 10
Frame Time: 0.008333
0.000000 87.345680 0.000000 0.000000 -5.767889 0.000000 0.000000 11.653876 0.000000 0.000000 -5.885988 0.000000 0.000000 -0.000000 0.000000 0.000000 -0.000000 0.000000 0.000000 12.528808 0.000000 0.000000 0.711711 0.000000 0.000000 -0.000000 0.000000 0.000000 -0.000000 0.000000 2.309063 -0.000000 0.000000 -2.309063 -0.000000 -0.000000 0.000000 -0.000000 0.000000 0.000000 0.000000 0.000000 -2.309063 0.000000 0.000000 2.309063 -0.000000 0.000000 0.000000 8.520374 0.000000 0.000000 1.905768 0.000000 -0.000000 -4.658254 0.000000 0.000000 -0.000000 0.000000 0.000000 8.520374 0.000000 0.000000 1.905768 0.000000 -0.000000 -4.658254 0.000000 0.000000 -0.000000 0.000000
3.749886 88.852791 20.701020 -60.881316 -6.650581 -1.678462 9.622636 2.263682 -0.193726 5.482553 1.256347 0.055593 6.853792 1.569154 0.088262 5.482553 1.256347 0.055593 19.960903 22.566300 -2.653776 24.484364 0.960330 -7.823347 -7.248487 2.304117 1.490067 -0.708475 -1.169087 88.402949 1.293701 -0.464010 0.122142 3.641503 -4.541117 -4.893094 -1.887918 0.124819 -1.619957 6.574165 -2.584731 -87.456378 1.275761 9.122970 0.398305 -6.344292 5.297678 7.356708 2.511805 5.571802 -6.781959 -12.588227 5.178723 -0.830885 9.809062 -2.757845 6.433935 0.028320 -0.461663 0.017621 22.374457 11.702795 4.383139 0.580643 -2.906276 -1.089408 7.506841 -6.207311 1.735830 0.017123 0.461738 -0.007264
3.729875 88.853037 20.699341 -60.837867 -6.655021 -1.673006 9.627696 2.261086 -0.195190 5.485370 1.254487 0.053194 6.857305 1.566864 0.085246 5.485370 1.254487 0.053194 19.993065 22.590465 -2.628644 24.520375 0.995043 -7.800309 -7.232884 2.289818 1.496376 -0.667694 -1.179458 88.396183 1.282625 -0.365953 0.105101 3.615795 -4.478548 -4.949521 -1.874157 0.141839 -1.614858 6.565281 -2.565343 -87.470864 1.291471 9.154151 0.443747 -6.343275 5.315585 7.366346 2.504915 5.596972 -6.786659 -12.597324 5.184927 -0.826332 9.808505 -2.781176 6.423839 0.031117 -0.458502 0.020194 22.377706 11.711046 4.392394 0.563486 -2.905431 -1.078628 7.461162 -6.199187 1.725003 0.017366 0.458669 -0.010371
3.706219 88.853325 20.697231 -60.796729 -6.660522 -1.668302 9.633200 2.259831 -0.195742 5.488221 1.253507 0.050889 6.860859 1.565672 0.082360 5.488221 1.253507 0.050889 20.019943 22.612577 -2.605885 24.549925 1.026283 -7.778858 -7.217397 2.274188 1.504520 -0.626291 -1.190119 88.388678 1.274486 -0.269786 0.087429 3.586511 -4.413073 -5.012703 -1.862377 0.156187 -1.610699 6.560095 -2.545705 -87.484379 1.311256 9.188285 0.491285 -6.328110 5.339075 7.369704 2.504081 5.625451 -6.785735 -12.607827 5.191785 -0.819407 9.787400 -2.806434 6.406917 0.032575 -0.453531 0.023696 22.385920 11.719190 4.404690 0.545495 -2.901245 -1.069902 7.426033 -6.194048 1.713036 0.017508 0.455771 -0.012382
3.680131 88.853590 20.694807 -60.757539 -6.664299 -1.663722 9.639475 2.259683 -0.195596 5.491352 1.253251 0.048474 6.864766 1.565389 0.079349 5.491352 1.253251 0.048474 20.040195 22.632641 -2.585034 24.571024 1.053686 -7.758102 -7.204848 2.254386 1.513392 -0.584209 -1.199306 88.380325 1.270948 -0.175083 0.071627 3.550288 -4.347787 -5.081863 -1.854737 0.166330 -1.608813 6.558727 -2.526863 -87.495712 1.337094 9.218365 0.537448 -6.299237 5.360733 7.366707 2.507026 5.653740 -6.782131 -12.618464 5.198894 -0.810976 9.754620 -2.833045 6.385665 0.032764 -0.447519 0.027695 22.399463 11.724256 4.416421 0.526372 -2.893806 -1.063026 7.406087 -6.191926 1.701993 0.018404 0.453047 -0.013874
3.652739 88.853788 20.692325 -60.720175 -6.664415 -1.657825 9.646001 2.259694 -0.196207 5.494764 1.252956 0.045622 6.869020 1.565061 0.075791 5.494764 1.252956 0.045622 20.054529 22.651143 -2.565570 24.584471 1.077956 -7.737577 -7.195628 2.231695 1.522956 -0.545061 -1.206456 88.371656 1.273295 -0.079428 0.057102 3.507243 -4.284651 -5.157850 -1.852547 0.176059 -1.606779 6.561139 -2.510919 -87.507338 1.369606 9.232217 0.580223 -6.256471 5.371911 7.356765 2.508978 5.679150 -6.779423 -12.628758 5.205780 -0.801077 9.717772 -2.860870 6.362389 0.032008 -0.440471 0.031053 22.417628 11.726278 4.423685 0.508828 -2.886202 -1.054676 7.395120 -6.190321 1.690778 0.020016 0.450118 -0.014943
3.624389 88.853952 20.690074 -60.682963 -6.662503 -1.650444 9.652638 2.259136 -0.199039 5.498608 1.252377 0.042306 6.873814 1.564387 0.071652 5.498608 1.252377 0.042306 20.064311 22.668705 -2.546687 24.591876 1.100088 -7.716641 -7.190353 2.209179 1.535380 -0.511431 -1.212638 88.362957 1.278463 0.019941 0.042547 3.462681 -4.226566 -5.239884 -1.856431 0.187123 -1.602126 6.566283 -2.495177 -87.520224 1.409581 9.217685 0.616440 -6.199051 5.366791 7.339360 2.505855 5.704268 -6.780582 -12.639335 5.209568 -0.792534 9.696762 -2.889169 6.342132 0.032485 -0.434526 0.033481 22.437122 11.728642 4.430519 0.492950 -2.880512 -1.044456 7.373499 -6.187731 1.676239 0.020174 0.446861 -0.015382
3.594633 88.854170 20.688025 -60.643479 -6.662621 -1.644284 9.659839 2.257731 -0.202190 5.503052 1.251818 0.039885 6.879361 1.563723 0.068633 5.503052 1.251818 0.039885 20.069260 22.686804 -2.528020 24.592728 1.121847 -7.694728 -7.191152 2.190028 1.549302 -0.480417 -1.219238 88.354316 1.283928 0.119896 0.026503 3.419715 -4.172474 -5.324857 -1.864298 0.197180 -1.595771 6.573070 -2.473213 -87.534291 1.455070 9.166981 0.642714 -6.128768 5.342862 7.311009 2.496788 5.732893 -6.783315 -12.651131 5.211531 -0.785550 9.694277 -2.917383 6.325761 0.034937 -0.431639 0.034815 22.453561 11.734841 4.444104 0.476332 -2.876741 -1.034555 7.334705 -6.184970 1.657398 0.017618 0.443840 -0.015207
3.563327 88.854474 20.686087 -60.601417 -6.666396 -1.640284 9.665300 2.255695 -0.202918 5.506432 1.250999 0.039040 6.883583 1.562711 0.067577 5.506433 1.250999 0.039040 20.072215 22.707168 -2.509590 24.590909 1.146067 -7.672511 -7.191429 2.174685 1.560592 -0.448963 -1.224568 88.345177 1.288303 0.213093 0.009674 3.379177 -4.120227 -5.410717 -1.867973 0.209253 -1.590380 6.584152 -2.445345 -87.549813 1.503710 9.077274 0.658813 -6.056117 5.297919 7.270937 2.482681 5.765467 -6.779792 -12.662389 5.214339 -0.778654 9.672221 -2.945397 6.308518 0.035680 -0.428375 0.034007 22.464810 11.744648 4.461121 0.458651 -2.873180 -1.025215 7.301698 -6.183115 1.636845 0.015269 0.441148 -0.014125
3.531143 88.854806 20.684487 -60.558645 -6.671668 -1.634527 9.665788 2.253544 -0.200996 5.506807 1.249856 0.038942 6.884050 1.561285 0.067438 5.506807 1.249856 0.038942 20.077031 22.729963 -2.492578 24.592059 1.173980 -7.652371 -7.180031 2.160547 1.566103 -0.420099 -1.225897 88.335132 1.292291 0.297373 -0.006629 3.342175 -4.067053 -5.500955 -1.858913 0.224874 -1.591157 6.602123 -2.415230 -87.565897 1.553958 8.949929 0.663361 -5.986075 5.233898 7.229537 2.465261 5.799521 -6.775840 -12.670069 5.218066 -0.772825 9.638697 -2.974829 6.292006 0.035181 -0.424096 0.032143 22.470761 11.756057 4.474034 0.444793 -2.867925 -1.016690 7.281288 -6.181651 1.617734 0.015326 0.437613 -0.012914
